<?xml version="1.0" encoding="UTF-8"?>
<svg xmlns="http://www.w3.org/2000/svg" xmlns:xlink="http://www.w3.org/1999/xlink" width="144px" height="144px" viewBox="0 0 144 144" version="1.1">
<g id="surface1">
<path style=" stroke:none;fill-rule:nonzero;fill:rgb(0%,0%,0%);fill-opacity:1;" d="M 101.746094 0.878906 C 99.667969 1.527344 96.316406 3.207031 94.285156 4.65625 C 93.292969 5.378906 92.300781 5.953125 92.160156 5.914062 C 91.972656 5.914062 90.789062 6.753906 89.46875 7.820312 C 87.0625 9.765625 86.117188 10.144531 85.21875 9.574219 C 84.984375 9.421875 84.085938 9.191406 83.238281 9.078125 C 82.433594 8.964844 81.535156 8.773438 81.300781 8.660156 C 78.988281 7.515625 57.929688 7.667969 55.144531 8.851562 C 54.671875 9.039062 54.296875 9.15625 54.296875 9.078125 C 54.296875 9.003906 52.546875 9.382812 50.421875 9.992188 L 46.503906 11.0625 L 44.617188 9.613281 C 40.082031 6.179688 32.152344 2.40625 30.546875 2.9375 C 29.226562 3.320312 28.46875 4.617188 27.101562 8.621094 C 26.769531 9.574219 26.390625 11.023438 26.15625 12.242188 C 26.015625 12.96875 25.824219 14.1875 25.683594 14.914062 C 25.542969 15.636719 25.351562 16.667969 25.210938 17.199219 C 25.117188 17.734375 24.929688 20.25 24.835938 22.804688 L 24.644531 27.457031 L 22.710938 29.671875 C 21.625 30.929688 20.773438 32.074219 20.773438 32.300781 C 20.773438 32.53125 20.347656 33.40625 19.828125 34.285156 C 18.933594 35.808594 17.515625 39.738281 17.234375 41.414062 C 17.183594 41.835938 16.996094 42.902344 16.808594 43.78125 L 16.429688 45.417969 L 13.644531 45.417969 C 10.246094 45.417969 10.339844 45.417969 9.300781 45.878906 C 8.828125 46.066406 8.5 46.410156 8.59375 46.640625 C 8.828125 47.175781 10.386719 47.402344 10.386719 46.90625 C 10.386719 46.375 15.296875 46.488281 16.148438 47.019531 C 16.570312 47.289062 16.996094 47.9375 17.089844 48.46875 C 17.328125 49.5 17.46875 49.460938 12.371094 49.730469 C 7.128906 50.035156 8.449219 51.253906 14.398438 51.671875 C 16.335938 51.828125 17.988281 52.132812 18.367188 52.472656 C 19.355469 53.277344 19.167969 53.351562 14.398438 54 C 12.699219 54.230469 11.332031 54.535156 10.859375 54.761719 C 9.160156 55.601562 12.417969 56.25 15.816406 55.753906 C 18.367188 55.371094 19.355469 55.523438 19.355469 56.363281 C 19.355469 56.667969 19.734375 57.394531 20.253906 57.929688 C 20.726562 58.5 21.480469 59.566406 21.90625 60.292969 C 23.179688 62.503906 25.496094 64.867188 29.226562 67.804688 L 32.765625 70.550781 L 31.773438 71.425781 C 31.207031 71.921875 30.59375 72.953125 30.453125 73.753906 C 30.261719 74.515625 29.980469 75.242188 29.792969 75.355469 C 29.601562 75.429688 29.414062 77.109375 29.320312 79.054688 C 29.226562 82.371094 29.933594 85.957031 31.253906 88.96875 C 31.539062 89.539062 31.632812 90.074219 31.585938 90.152344 C 31.492188 90.226562 32.339844 91.179688 33.472656 92.285156 C 34.605469 93.355469 35.457031 94.308594 35.363281 94.382812 C 35.269531 94.460938 34.136719 94.613281 32.8125 94.726562 C 31.539062 94.839844 29.273438 95.144531 27.855469 95.375 C 25.023438 95.832031 24.316406 95.945312 21.480469 96.289062 C 20.445312 96.40625 18.980469 96.59375 18.175781 96.710938 C 13.597656 97.242188 11.851562 97.890625 11.472656 99.113281 C 10.90625 100.941406 11.140625 106.359375 12.039062 112.535156 C 12.132812 113.070312 12.324219 114.671875 12.511719 116.15625 C 12.699219 117.605469 12.890625 118.902344 12.984375 119.054688 C 13.078125 119.171875 13.3125 119.78125 13.410156 120.390625 C 13.550781 121 13.785156 121.917969 13.929688 122.449219 C 14.070312 122.984375 14.304688 123.746094 14.398438 124.164062 C 14.542969 124.585938 14.730469 125.347656 14.871094 125.882812 C 15.0625 126.414062 15.25 127.253906 15.390625 127.75 C 15.53125 128.285156 15.722656 128.816406 15.863281 129.007812 C 16.003906 129.199219 16.242188 129.773438 16.335938 130.34375 C 16.476562 130.914062 16.761719 131.5625 16.996094 131.792969 C 17.234375 132.058594 17.515625 132.554688 17.609375 132.976562 C 17.703125 133.355469 18.128906 134.347656 18.601562 135.109375 C 19.5 136.828125 19.546875 137.320312 18.789062 137.359375 C 18.460938 137.398438 17.65625 137.472656 16.996094 137.511719 C 16.335938 137.589844 14.542969 137.742188 12.984375 137.855469 C 9.207031 138.160156 7.269531 138.351562 4.722656 138.65625 C 3.539062 138.808594 2.171875 138.960938 1.652344 139.039062 C 1.132812 139.078125 0.566406 139.152344 0.378906 139.191406 C 0.140625 139.191406 0 140.183594 0 141.328125 L 0 143.425781 L 144 143.425781 L 144 123.175781 L 142.726562 123.363281 C 141.96875 123.480469 140.835938 123.632812 140.175781 123.746094 L 138.996094 123.976562 L 138.996094 117.378906 C 139.042969 111.429688 138.757812 108.148438 138.050781 106.359375 C 137.769531 105.558594 137.484375 104.335938 137.152344 102.429688 C 137.011719 101.589844 136.445312 99.683594 135.878906 98.234375 C 135.3125 96.746094 134.886719 95.183594 134.933594 94.6875 C 134.980469 94.230469 134.839844 93.851562 134.605469 93.851562 C 134.367188 93.851562 133.945312 93.046875 133.613281 92.019531 C 133.328125 91.027344 132.148438 88.703125 131.109375 86.832031 L 129.128906 83.476562 L 125.492188 83.707031 C 123.460938 83.859375 121.480469 84.050781 121.101562 84.164062 C 120.441406 84.390625 120.441406 84.238281 121.148438 82.945312 C 122.566406 80.234375 123.886719 78.214844 124.265625 78.214844 C 124.5 78.214844 124.59375 78.101562 124.546875 77.910156 C 124.453125 77.453125 127.332031 72.609375 127.902344 72.34375 C 128.183594 72.191406 128.417969 71.769531 128.417969 71.351562 C 128.417969 70.96875 129.035156 69.75 129.742188 68.605469 C 132.433594 64.523438 132.101562 60.558594 128.890625 57.929688 L 127.097656 56.441406 L 123.367188 56.515625 C 121.195312 56.554688 119.117188 56.820312 118.269531 57.164062 C 116.097656 58.042969 113.785156 59.566406 113.785156 60.101562 C 113.785156 60.367188 113.40625 60.976562 112.933594 61.472656 C 112.414062 61.96875 111.894531 62.886719 111.707031 63.457031 L 111.375 64.523438 L 110.054688 63.722656 C 109.296875 63.304688 108.308594 62.960938 107.789062 62.960938 C 107.03125 62.921875 107.03125 62.886719 107.691406 62.464844 C 109.535156 61.320312 115.199219 53.351562 115.199219 51.902344 C 115.199219 51.671875 115.390625 51.558594 115.625 51.671875 C 115.859375 51.789062 116.050781 51.484375 116.050781 50.949219 C 116.050781 50.453125 116.425781 49.386719 116.945312 48.585938 C 117.796875 47.289062 118.128906 47.136719 119.828125 47.019531 C 122.421875 46.867188 122.566406 45.914062 120.0625 45.726562 C 118.410156 45.609375 118.269531 45.496094 118.269531 44.503906 C 118.269531 43.285156 118.269531 43.285156 123.792969 42.367188 C 127.851562 41.722656 126.957031 40.996094 122.28125 41.148438 L 118.503906 41.300781 L 118.503906 39.964844 C 118.503906 38.632812 118.503906 38.632812 121.007812 38.363281 C 126.296875 37.792969 126.578125 36.648438 121.335938 36.917969 L 117.5625 37.144531 L 117.5625 35.925781 C 117.5625 34.285156 116.617188 31.308594 116.097656 31.308594 C 115.859375 31.308594 115.671875 30.96875 115.671875 30.546875 C 115.671875 30.089844 115.246094 29.136719 114.773438 28.335938 C 114.304688 27.574219 113.878906 26.773438 113.832031 26.621094 C 113.832031 26.46875 113.5 26.046875 113.074219 25.742188 C 112.699219 25.398438 112.507812 24.941406 112.699219 24.714844 C 112.839844 24.445312 112.839844 24.371094 112.601562 24.523438 C 112.414062 24.675781 111.894531 24.40625 111.421875 23.949219 C 110.761719 23.265625 110.527344 21.96875 110.242188 17.199219 C 109.863281 10.757812 108.921875 5.644531 107.597656 2.824219 C 106.511719 0.5 104.90625 -0.0351562 101.746094 0.878906 Z M 105.050781 4.3125 C 106.371094 6.90625 107.222656 11.671875 107.363281 17.351562 L 107.503906 23.148438 L 109.628906 26.351562 C 111.800781 29.59375 113.878906 34.09375 114.445312 36.726562 L 114.773438 38.097656 L 112.273438 38.859375 C 110.902344 39.28125 107.597656 40.15625 104.953125 40.84375 C 101.886719 41.644531 100.09375 42.292969 100.09375 42.597656 C 100.09375 42.902344 100.5625 43.132812 101.082031 43.132812 C 102.3125 43.132812 110.382812 41.378906 112.601562 40.613281 C 115.152344 39.777344 115.671875 39.890625 115.671875 41.414062 C 115.671875 42.675781 115.578125 42.75 113.21875 43.324219 C 111.847656 43.628906 108.828125 44.160156 106.464844 44.503906 C 100.988281 45.304688 101.035156 45.304688 101.035156 45.992188 C 101.035156 46.335938 101.460938 46.5625 102.167969 46.5625 C 103.679688 46.5625 109.582031 45.574219 112.699219 44.773438 C 114.066406 44.429688 115.292969 44.238281 115.4375 44.351562 C 115.625 44.464844 115.4375 45.152344 115.058594 45.878906 C 114.445312 47.097656 114.066406 47.289062 111.375 47.820312 C 109.722656 48.128906 107.363281 48.546875 106.136719 48.660156 C 104.671875 48.851562 103.867188 49.117188 103.867188 49.460938 C 103.867188 50.070312 105.570312 49.957031 110.902344 49.003906 C 112.554688 48.699219 114.019531 48.546875 114.113281 48.625 C 114.398438 48.851562 110.714844 54.722656 108.828125 57.011719 C 104.625 62.121094 99.808594 65.097656 91.121094 67.917969 C 85.03125 69.902344 81.535156 71.3125 82.621094 71.351562 C 84.039062 71.351562 95.75 68.679688 100.09375 67.347656 C 104.105469 66.089844 104.71875 65.972656 106.324219 66.355469 C 112.414062 67.84375 113.5 76.078125 108.636719 84.085938 C 106.84375 86.984375 102.121094 92.554688 101.695312 92.210938 C 101.554688 92.132812 101.746094 90.761719 102.027344 89.160156 C 102.546875 86.300781 102.3125 83.554688 101.554688 83.554688 C 101.367188 83.554688 101.035156 84.8125 100.894531 86.375 C 100.328125 91.523438 98.488281 94.15625 92.960938 97.394531 C 90.839844 98.691406 90.648438 98.691406 90.648438 97.359375 C 90.648438 96.214844 89.941406 95.070312 89.421875 95.453125 C 89.28125 95.605469 88.996094 96.289062 88.808594 96.976562 C 88.570312 97.890625 88.195312 98.273438 87.4375 98.347656 C 85.550781 98.578125 84.84375 97.738281 85.078125 95.453125 C 85.3125 93.164062 84.746094 92.476562 83.992188 94.191406 C 83.707031 94.839844 83.191406 95.375 82.90625 95.375 C 81.773438 95.375 81.019531 93.238281 80.828125 89.234375 C 80.59375 84.621094 81.535156 80.046875 83.140625 77.949219 C 84.085938 76.726562 87.722656 74.402344 88.714844 74.402344 C 88.996094 74.402344 89.234375 74.210938 89.234375 74.019531 C 89.234375 73.484375 87.582031 73.5625 85.785156 74.132812 C 83.332031 74.972656 81.300781 76.613281 79.554688 79.167969 C 78.042969 81.339844 77.664062 81.609375 75.777344 81.988281 C 72 82.753906 71.621094 82.636719 68.789062 79.816406 C 66.050781 77.070312 63.878906 75.925781 61.425781 75.925781 C 59.300781 75.925781 59.628906 76.535156 62.226562 77.453125 C 63.453125 77.871094 65.011719 78.785156 65.671875 79.472656 C 67.46875 81.265625 70.535156 85.804688 71.433594 87.9375 C 72.800781 91.179688 72.234375 98.042969 70.582031 98.042969 C 70.253906 98.042969 69.496094 97.433594 68.929688 96.710938 C 67.703125 95.109375 66.804688 94.957031 67.230469 96.367188 C 68.082031 98.996094 68.128906 99.644531 67.46875 99.988281 C 66.238281 100.597656 65.203125 100.332031 64.585938 99.304688 C 64.257812 98.730469 63.550781 98.195312 63.078125 98.121094 C 62.320312 97.96875 62.226562 98.121094 62.511719 99.339844 C 62.792969 100.523438 62.699219 100.714844 61.894531 100.714844 C 60.242188 100.714844 58.589844 100.027344 56.417969 98.386719 C 54.296875 96.824219 50.894531 92.324219 50.28125 90.304688 C 50.09375 89.730469 49.714844 89.160156 49.433594 89.007812 C 48.488281 88.550781 49.527344 93.734375 50.941406 96.746094 C 51.746094 98.386719 52.3125 99.796875 52.171875 99.875 C 51.886719 100.105469 44.945312 97.699219 43.011719 96.710938 C 37.441406 93.8125 32.578125 86.300781 32.578125 80.539062 C 32.578125 78.671875 32.8125 77.679688 33.519531 76.765625 C 35.125 74.667969 36.636719 74.402344 46.503906 74.402344 C 51.320312 74.402344 55.238281 74.285156 55.238281 74.097656 C 55.238281 73.945312 52.691406 73.371094 49.527344 72.800781 C 46.410156 72.226562 42.304688 71.199219 40.460938 70.511719 C 37.34375 69.367188 31.964844 66.429688 30.214844 64.90625 C 28.042969 63.074219 25.210938 59.835938 23.84375 57.585938 L 22.238281 55.03125 L 24.21875 54.800781 C 25.304688 54.6875 27.335938 54.496094 28.660156 54.34375 C 30.027344 54.191406 31.539062 53.847656 31.964844 53.542969 C 32.71875 53.046875 32.152344 53.007812 27.335938 53.238281 C 22.519531 53.429688 21.8125 53.390625 21.527344 52.855469 C 20.820312 51.367188 21.105469 51.292969 29.128906 50.566406 C 37.863281 49.84375 38.242188 49.765625 38.242188 49.003906 C 38.242188 48.316406 36.683594 48.316406 28.515625 49.117188 C 24.882812 49.460938 21.527344 49.652344 21.105469 49.5 C 20.585938 49.347656 20.300781 48.851562 20.300781 48.128906 C 20.300781 47.097656 20.445312 46.984375 22.097656 46.867188 C 24.550781 46.714844 24.457031 45.6875 21.953125 45.496094 C 20.914062 45.417969 19.972656 45.304688 19.875 45.230469 C 19.78125 45.113281 19.972656 43.78125 20.253906 42.179688 C 20.914062 38.519531 23.085938 33.941406 26.015625 30.050781 L 28.328125 27 L 28.328125 21.929688 C 28.328125 17.925781 28.5625 15.828125 29.554688 12.242188 C 30.734375 7.554688 31.492188 5.761719 32.152344 5.761719 C 33.332031 5.761719 38.195312 8.542969 43.105469 11.976562 L 46.316406 14.226562 L 50.234375 13.042969 C 59.535156 10.222656 70.347656 9.574219 81.867188 11.136719 L 88.101562 11.976562 L 92.347656 9.117188 C 97.871094 5.378906 101.980469 3.128906 103.300781 3.128906 C 104.105469 3.089844 104.578125 3.433594 105.050781 4.3125 Z M 126.71875 59.796875 C 128.277344 61.015625 128.609375 62.121094 128.277344 64.523438 C 127.949219 66.621094 127.285156 67.917969 124.171875 72.304688 C 122.941406 73.980469 120.628906 77.453125 118.976562 80.046875 C 115.957031 84.773438 114.019531 86.757812 110.429688 88.890625 C 108.070312 90.265625 107.644531 90.152344 109.015625 88.550781 C 110.855469 86.488281 113.832031 80.960938 114.539062 78.292969 C 115.199219 75.660156 115.105469 71.808594 114.160156 68.949219 C 113.3125 66.125 115.90625 62.046875 120.015625 59.796875 C 122.613281 58.421875 125.019531 58.386719 126.71875 59.796875 Z M 129.222656 87.253906 C 129.457031 87.824219 128.5625 88.015625 123.226562 88.511719 C 117.984375 89.007812 118.03125 89.007812 118.03125 88.167969 C 118.03125 87.558594 118.503906 87.367188 120.300781 87.136719 C 121.527344 87.023438 123.367188 86.757812 124.40625 86.640625 C 126.625 86.335938 128.984375 86.640625 129.222656 87.253906 Z M 130.6875 90.492188 C 130.828125 91.445312 130.6875 91.523438 127.617188 91.90625 C 125.871094 92.132812 123.039062 92.363281 121.335938 92.4375 C 118.550781 92.515625 118.269531 92.4375 118.269531 91.753906 C 118.269531 91.066406 118.929688 90.914062 123.933594 90.1875 C 127.050781 89.730469 129.835938 89.425781 130.070312 89.464844 C 130.355469 89.503906 130.589844 89.960938 130.6875 90.492188 Z M 132.101562 94.652344 L 132.242188 95.605469 L 121.242188 96.671875 C 115.199219 97.28125 107.175781 98.160156 103.445312 98.65625 C 95.890625 99.644531 94.945312 99.722656 95.652344 99.226562 C 96.125 98.882812 102.074219 97.664062 107.929688 96.710938 C 114.632812 95.640625 130.496094 93.507812 131.253906 93.582031 C 131.628906 93.621094 132.007812 94.117188 132.101562 94.652344 Z M 39.894531 98.042969 C 40.367188 98.464844 40.652344 98.882812 40.554688 98.921875 C 40.460938 98.996094 35.078125 99.683594 28.5625 100.484375 C 22.097656 101.246094 16.195312 101.972656 15.484375 102.085938 C 14.257812 102.277344 14.164062 102.199219 14.164062 101.132812 C 14.164062 99.683594 14.730469 99.570312 25.730469 98.3125 C 36.257812 97.089844 38.761719 97.054688 39.894531 98.042969 Z M 132.90625 98.882812 C 133 99.378906 133.519531 101.210938 134.039062 103 C 135.832031 109.371094 136.539062 113.832031 136.539062 118.902344 C 136.539062 121.726562 136.445312 124.089844 136.304688 124.203125 C 136.164062 124.320312 133.753906 124.660156 130.96875 124.964844 C 128.136719 125.273438 123.792969 125.765625 121.335938 126.074219 C 118.882812 126.378906 112.699219 127.0625 107.644531 127.597656 C 102.59375 128.132812 95.371094 128.933594 91.59375 129.351562 C 83.613281 130.265625 72.945312 131.449219 68.222656 131.984375 C 66.429688 132.175781 62.464844 132.59375 59.488281 132.9375 C 56.515625 133.28125 50.894531 133.890625 46.976562 134.308594 C 43.105469 134.730469 37.34375 135.378906 34.230469 135.796875 C 31.113281 136.179688 27.054688 136.636719 25.210938 136.789062 L 21.8125 137.015625 L 21.339844 135.757812 C 20.019531 132.328125 17.894531 125.15625 16.761719 120.160156 C 16.050781 117.109375 15.203125 113.375 14.824219 111.847656 C 14.445312 110.285156 14.257812 108.914062 14.398438 108.722656 C 14.542969 108.570312 16.050781 108.300781 17.800781 108.148438 C 22.332031 107.804688 36.308594 106.167969 44.378906 105.097656 C 50.28125 104.296875 66.050781 103.230469 66.476562 103.574219 C 66.570312 103.648438 65.390625 103.800781 63.878906 103.957031 C 62.367188 104.109375 57.554688 104.71875 53.113281 105.328125 C 40.746094 107.042969 21.765625 109.523438 18.933594 109.789062 C 16.195312 110.054688 15.675781 110.4375 16.617188 111.503906 C 17.234375 112.152344 17.753906 112.117188 26.203125 111.007812 C 44.523438 108.644531 61.800781 106.472656 68.457031 105.671875 C 74.597656 104.984375 90.035156 103.039062 105.519531 101.058594 C 108.636719 100.675781 114.160156 99.988281 117.796875 99.570312 C 121.433594 99.148438 125.679688 98.65625 127.238281 98.464844 C 132.054688 97.890625 132.621094 97.929688 132.90625 98.882812 Z M 86.210938 101.058594 C 86.070312 101.246094 84.605469 101.515625 83 101.667969 C 81.347656 101.820312 77.710938 102.277344 74.832031 102.660156 C 68.222656 103.574219 66.382812 103.535156 70.347656 102.582031 C 74.878906 101.476562 86.730469 100.332031 86.210938 101.058594 Z M 42.917969 102.199219 C 44.144531 102.847656 42.585938 103.152344 32.71875 104.144531 C 28.609375 104.601562 22.804688 105.289062 19.78125 105.671875 C 16.761719 106.089844 14.164062 106.433594 13.976562 106.433594 C 13.3125 106.433594 13.738281 104.910156 14.496094 104.566406 C 14.964844 104.375 18.980469 103.839844 23.371094 103.382812 C 27.808594 102.925781 32.484375 102.429688 33.757812 102.238281 C 37.0625 101.820312 42.113281 101.820312 42.917969 102.199219 Z M 42.917969 102.199219 "/>
<path style=" stroke:none;fill-rule:nonzero;fill:rgb(0%,0%,0%);fill-opacity:1;" d="M 98.675781 8.316406 C 97.351562 9.535156 95.796875 11.175781 95.324219 11.976562 L 94.378906 13.464844 L 96.882812 15.597656 C 98.296875 16.820312 99.902344 18.421875 100.515625 19.183594 C 101.082031 19.984375 101.792969 20.632812 102.027344 20.632812 C 103.160156 20.632812 103.917969 17.773438 103.964844 13.808594 C 103.964844 9.421875 103.160156 6.410156 101.886719 6.21875 C 101.460938 6.140625 100.09375 7.058594 98.675781 8.316406 Z M 98.675781 8.316406 "/>
<path style=" stroke:none;fill-rule:nonzero;fill:rgb(0%,0%,0%);fill-opacity:1;" d="M 33.191406 10.984375 C 31.539062 14.265625 30.640625 21.394531 31.679688 23.570312 L 32.152344 24.636719 L 33.425781 23.300781 C 35.644531 21.015625 40.320312 17.164062 41.640625 16.515625 C 43.246094 15.75 43.292969 15.21875 41.925781 14.035156 C 40.652344 12.96875 34.9375 9.574219 34.324219 9.574219 C 34.136719 9.574219 33.617188 10.222656 33.191406 10.984375 Z M 33.191406 10.984375 "/>
<path style=" stroke:none;fill-rule:nonzero;fill:rgb(0%,0%,0%);fill-opacity:1;" d="M 84.085938 31.425781 C 81.441406 32.492188 80.074219 35.390625 80.78125 38.402344 C 81.960938 43.476562 88.996094 44.3125 92.394531 39.8125 C 93.859375 37.871094 93.90625 34.742188 92.492188 33.179688 C 90.695312 31.121094 86.777344 30.28125 84.085938 31.425781 Z M 85.363281 35.960938 C 85.503906 37.753906 84.84375 38.441406 83.566406 37.792969 C 82.199219 37.105469 83.285156 33.714844 84.699219 34.09375 C 84.984375 34.171875 85.265625 35.007812 85.363281 35.960938 Z M 85.363281 35.960938 "/>
<path style=" stroke:none;fill-rule:nonzero;fill:rgb(0%,0%,0%);fill-opacity:1;" d="M 45.324219 32.914062 C 41.878906 34.820312 40.792969 37.601562 42.207031 40.652344 C 43.152344 42.597656 44.996094 44.007812 47.496094 44.65625 C 50.046875 45.34375 52.972656 44.351562 54.53125 42.214844 C 56.796875 39.089844 55.664062 34.515625 52.265625 32.835938 C 50.1875 31.804688 47.261719 31.84375 45.324219 32.914062 Z M 46.128906 36.34375 C 46.835938 37.070312 47.308594 38.898438 46.976562 39.738281 C 46.789062 40.121094 46.269531 40.460938 45.796875 40.460938 C 44.523438 40.460938 43.292969 38.824219 43.671875 37.71875 C 44.097656 36.726562 44.804688 35.886719 45.324219 35.886719 C 45.511719 35.886719 45.890625 36.117188 46.128906 36.34375 Z M 46.128906 36.34375 "/>
<path style=" stroke:none;fill-rule:nonzero;fill:rgb(0%,0%,0%);fill-opacity:1;" d="M 100.5625 36.535156 C 98.203125 36.917969 97.589844 38.175781 99.761719 38.175781 C 101.082031 38.175781 103.019531 37.105469 102.6875 36.609375 C 102.5 36.421875 102.261719 36.304688 102.074219 36.304688 C 101.886719 36.34375 101.226562 36.457031 100.5625 36.535156 Z M 100.5625 36.535156 "/>
<path style=" stroke:none;fill-rule:nonzero;fill:rgb(40.392157%,22.352941%,74.509805%);fill-opacity:1;" d="M 64.304688 41.453125 C 62.886719 42.253906 62.980469 42.980469 64.683594 43.4375 C 66.335938 43.933594 67.277344 45.34375 66.855469 46.714844 C 66.710938 47.210938 65.53125 48.546875 64.257812 49.578125 C 61.660156 51.710938 60.433594 51.980469 57.457031 50.949219 C 55.332031 50.226562 54.765625 50.226562 54.765625 50.910156 C 54.765625 51.902344 56.417969 53.085938 58.308594 53.429688 C 61.425781 54 65.203125 52.09375 67.84375 48.625 C 68.363281 47.9375 68.457031 47.976562 69.640625 49.15625 C 71.953125 51.445312 75.210938 52.132812 78.5625 50.988281 C 80.308594 50.414062 81.726562 48.355469 80.828125 47.632812 C 80.449219 47.328125 79.882812 47.515625 78.847656 48.242188 C 75.917969 50.226562 71.480469 49.425781 69.640625 46.5625 C 69.074219 45.6875 69.027344 45.265625 69.496094 44.464844 C 69.78125 43.933594 70.160156 43.511719 70.347656 43.511719 C 70.535156 43.511719 70.914062 43.09375 71.199219 42.558594 C 71.667969 41.757812 71.621094 41.570312 70.820312 41.226562 C 69.449219 40.652344 65.484375 40.769531 64.304688 41.453125 Z M 64.304688 41.453125 "/>
<path style=" stroke:none;fill-rule:nonzero;fill:rgb(0%,0%,0%);fill-opacity:1;" d="M 35.644531 44.3125 C 35.175781 44.925781 36.308594 45.421875 38.148438 45.421875 C 39.421875 45.421875 39.707031 45.265625 39.566406 44.734375 C 39.375 43.972656 36.164062 43.589844 35.644531 44.3125 Z M 35.644531 44.3125 "/>
<path style=" stroke:none;fill-rule:nonzero;fill:rgb(0%,0%,0%);fill-opacity:1;" d="M 64.683594 73.21875 C 64.683594 73.601562 69.261719 74.132812 69.875 73.828125 C 71.054688 73.257812 70.113281 72.875 67.515625 72.875 C 65.957031 72.875 64.683594 73.027344 64.683594 73.21875 Z M 64.683594 73.21875 "/>
<path style=" stroke:none;fill-rule:nonzero;fill:rgb(0%,0%,0%);fill-opacity:1;" d="M 33.992188 112.574219 C 24.457031 113.679688 20.773438 114.058594 19.261719 114.058594 C 17.65625 114.058594 17.46875 114.175781 17.46875 115.015625 C 17.46875 116.234375 17.1875 116.234375 29.507812 114.9375 C 38.949219 113.984375 41.121094 113.527344 40.414062 112.574219 C 40.035156 112.117188 37.914062 112.117188 33.992188 112.574219 Z M 33.992188 112.574219 "/>
</g>
</svg>
