<svg width="84" height="104" viewBox="0 0 84 104" fill="none" xmlns="http://www.w3.org/2000/svg">
<path d="M59.3508 0.635338C58.139 1.10353 56.1836 2.31534 54.9994 3.36189C54.421 3.88517 53.8426 4.29829 53.76 4.27074C53.6499 4.27074 52.9613 4.87665 52.1902 5.6478C50.7856 7.05239 50.2348 7.3278 49.7115 6.91468C49.5738 6.80452 49.0505 6.63927 48.5548 6.55665C48.0866 6.47403 47.5633 6.33632 47.4256 6.2537C46.0761 5.42747 33.7928 5.53764 32.1679 6.3914C31.8925 6.52911 31.6721 6.61173 31.6721 6.55665C31.6721 6.50156 30.6531 6.77698 29.4138 7.21764L27.1279 7.98878L26.0262 6.94222C23.3823 4.46353 18.7554 1.73698 17.819 2.12255C17.0479 2.39796 16.6072 3.33435 15.8085 6.22616C15.6157 6.91468 15.3954 7.96124 15.2577 8.84255C15.1751 9.36583 15.0649 10.2471 14.9823 10.7704C14.8997 11.2937 14.7895 12.0373 14.7069 12.4229C14.6518 12.8085 14.5416 14.6262 14.4866 16.4714L14.3764 19.8314L13.2472 21.4288C12.6138 22.3376 12.118 23.1639 12.118 23.3291C12.118 23.4944 11.8702 24.1278 11.5672 24.7613C11.0439 25.8629 10.2177 28.6996 10.0525 29.9114C10.0249 30.2144 9.91476 30.9855 9.80459 31.619L9.58427 32.8032H7.95935C5.9764 32.8032 6.03148 32.8032 5.42558 33.1337C5.15017 33.2714 4.95738 33.5193 5.01246 33.6845C5.15017 34.0701 6.05902 34.2354 6.05902 33.8773C6.05902 33.4917 8.92328 33.5744 9.41902 33.9599C9.66689 34.1527 9.91476 34.6209 9.96984 35.0065C10.1075 35.7501 10.1902 35.7226 7.21574 35.9154C4.15869 36.1357 4.92984 37.017 8.4 37.3199C9.52918 37.4301 10.4931 37.6504 10.7134 37.8983C11.2918 38.4767 11.1816 38.5317 8.4 38.9999C7.40853 39.1652 6.60984 39.3855 6.33443 39.5508C5.34295 40.1567 7.24328 40.6249 9.22623 40.2668C10.7134 39.9914 11.2918 40.1016 11.2918 40.7075C11.2918 40.9278 11.5121 41.4511 11.8151 41.8367C12.0905 42.2498 12.5312 43.0209 12.779 43.5442C13.5226 45.1416 14.8721 46.8491 17.0479 48.9698L19.1134 50.9527L18.5351 51.5862C18.2046 51.9442 17.8466 52.6878 17.7639 53.2662C17.6538 53.817 17.4885 54.3403 17.3784 54.4229C17.2682 54.478 17.158 55.6898 17.103 57.0944C17.0479 59.4904 17.461 62.0793 18.2321 64.255C18.3974 64.6682 18.4525 65.0537 18.4249 65.1088C18.3698 65.1639 18.8656 65.8524 19.5266 66.6511C20.1875 67.4223 20.6833 68.1108 20.6282 68.1659C20.5731 68.2209 19.9121 68.3311 19.141 68.4137C18.3974 68.4964 17.0754 68.7167 16.2492 68.8819C14.5967 69.2124 14.1836 69.295 12.5312 69.5429C11.9253 69.6255 11.0715 69.7632 10.6033 69.8459C7.93181 70.2314 6.91279 70.6996 6.69246 71.5809C6.36197 72.9029 6.49967 76.8137 7.02295 81.2754C7.07804 81.661 7.1882 82.8177 7.29836 83.8918C7.40853 84.9383 7.51869 85.8747 7.57377 85.9849C7.62886 86.0675 7.76656 86.5082 7.82164 86.9488C7.90426 87.3895 8.04197 88.0505 8.12459 88.436C8.20722 88.8216 8.34492 89.3724 8.4 89.6754C8.48263 89.9783 8.59279 90.5292 8.67541 90.9147C8.78558 91.3003 8.89574 91.9062 8.97836 92.2642C9.06099 92.6498 9.17115 93.0354 9.25377 93.1731C9.3364 93.3108 9.4741 93.7239 9.52918 94.137C9.61181 94.5501 9.77705 95.0183 9.91476 95.1836C10.0525 95.3764 10.2177 95.7344 10.2728 96.0374C10.3279 96.3128 10.5757 97.0288 10.8512 97.5796C11.3744 98.819 11.402 99.177 10.9613 99.2046C10.7685 99.2321 10.3003 99.2872 9.91476 99.3147C9.52918 99.3698 8.48263 99.48 7.57377 99.5626C5.37049 99.7829 4.24131 99.9206 2.7541 100.141C2.06557 100.251 1.26689 100.361 0.963935 100.416C0.660984 100.444 0.330492 100.499 0.220328 100.527C0.082623 100.527 0 101.243 0 102.069V103.584H42H84V96.2577V88.9593L83.2564 89.097C82.8158 89.1796 82.1548 89.2898 81.7692 89.3724L81.0807 89.5377V84.7731C81.1082 80.4767 80.943 78.1082 80.5299 76.8137C80.3646 76.2354 80.1994 75.3541 80.0066 73.977C79.924 73.3711 79.5935 71.9941 79.263 70.9475C78.9325 69.8734 78.6846 68.7442 78.7122 68.3862C78.7397 68.0557 78.6571 67.7803 78.5194 67.7803C78.3817 67.7803 78.1338 67.2019 77.941 66.4583C77.7758 65.7423 77.0872 64.0623 76.4813 62.7127L75.3246 60.2891L73.204 60.4544C72.0197 60.5645 70.863 60.7023 70.6426 60.7849C70.2571 60.9501 70.2571 60.84 70.6702 59.9036C71.4964 57.9482 72.2676 56.4885 72.4879 56.4885C72.6256 56.4885 72.6807 56.4059 72.6531 56.2682C72.5981 55.9377 74.2781 52.44 74.6086 52.2472C74.7738 52.137 74.9115 51.8341 74.9115 51.5311C74.9115 51.2557 75.2695 50.3744 75.6826 49.5481C77.2525 46.6013 77.0597 43.737 75.1869 41.8367L74.1404 40.7626L71.9646 40.8177C70.6977 40.8452 69.4859 41.038 68.9902 41.2859C67.7233 41.9193 66.3738 43.0209 66.3738 43.4065C66.3738 43.5993 66.1535 44.0399 65.8781 44.398C65.5751 44.756 65.2722 45.417 65.162 45.8301L64.9692 46.6013L64.1981 46.0229C63.7574 45.72 63.179 45.4721 62.8761 45.4721C62.4354 45.4445 62.4354 45.417 62.821 45.114C63.8951 44.2878 67.2 38.5317 67.2 37.4852C67.2 37.3199 67.3102 37.2373 67.4479 37.3199C67.5856 37.4026 67.6958 37.1822 67.6958 36.7967C67.6958 36.4386 67.9161 35.6675 68.219 35.0891C68.7148 34.1527 68.9076 34.0426 69.899 33.9599C71.4138 33.8498 71.4964 33.1613 70.0367 33.0236C69.0728 32.9409 68.9902 32.8583 68.9902 32.1422C68.9902 31.2609 68.9902 31.2609 72.2125 30.5999C74.581 30.1317 74.0577 29.6085 71.3312 29.7186L69.1279 29.8288V28.8649C69.1279 27.9009 69.1279 27.9009 70.5876 27.7081C73.6722 27.295 73.8374 26.4688 70.7803 26.6616L68.5771 26.8268V25.9455C68.5771 24.7613 68.0263 22.6131 67.7233 22.6131C67.5856 22.6131 67.4754 22.3652 67.4754 22.0622C67.4754 21.7317 67.2276 21.0432 66.9522 20.4649C66.6767 19.914 66.4289 19.3357 66.4013 19.2255C66.4013 19.1153 66.2085 18.8124 65.9607 18.5921C65.7403 18.3442 65.6302 18.0137 65.7403 17.8485C65.823 17.6557 65.823 17.6006 65.6853 17.7108C65.5751 17.8209 65.2722 17.6281 64.9967 17.2976C64.6112 16.8019 64.4735 15.8655 64.3082 12.4229C64.0879 7.76846 63.5371 4.07796 62.7659 2.03992C62.1325 0.359924 61.1961 -0.02565 59.3508 0.635338ZM61.2787 3.11402C62.0499 4.98682 62.5456 8.42944 62.6282 12.533L62.7108 16.7193L63.9502 19.0327C65.2171 21.3737 66.4289 24.6235 66.7594 26.5239L66.9522 27.5154L65.4925 28.0662C64.6938 28.3691 62.7659 29.0026 61.2236 29.4983C59.4335 30.0767 58.3869 30.5449 58.3869 30.7652C58.3869 30.9855 58.6623 31.1508 58.9653 31.1508C59.6813 31.1508 64.3908 29.8839 65.6853 29.3331C67.1725 28.7271 67.4754 28.8098 67.4754 29.9114C67.4754 30.8203 67.4203 30.8754 66.0433 31.2885C65.2446 31.5088 63.482 31.8944 62.1049 32.1422C58.9102 32.7206 58.9377 32.7206 58.9377 33.2163C58.9377 33.4642 59.1856 33.6294 59.5987 33.6294C60.48 33.6294 63.9226 32.9134 65.7403 32.335C66.539 32.0872 67.2551 31.9494 67.3377 32.0321C67.4479 32.1147 67.3377 32.6104 67.1174 33.1337C66.7594 34.015 66.539 34.1527 64.9692 34.5383C64.0053 34.7586 62.6282 35.0616 61.9122 35.1442C61.0584 35.2819 60.5902 35.4747 60.5902 35.7226C60.5902 36.1632 61.5817 36.0806 64.6938 35.3921C65.6577 35.1717 66.5115 35.0616 66.5666 35.1167C66.7318 35.2819 64.5836 39.5232 63.482 41.1757C61.0308 44.8662 58.2217 47.0144 53.1541 49.0524C49.6013 50.4845 47.5633 51.5036 48.1967 51.5311C49.023 51.5311 55.8531 49.6032 58.3869 48.6393C60.7279 47.7304 61.0859 47.6478 62.0223 47.9232C65.5751 48.9973 66.2085 54.9462 63.3718 60.7298C62.3253 62.8229 59.5712 66.8439 59.3233 66.596C59.2407 66.5409 59.3508 65.5495 59.5161 64.3927C59.819 62.3272 59.6813 60.3442 59.2407 60.3442C59.1305 60.3442 58.9377 61.2531 58.8551 62.3823C58.5246 66.1003 57.4505 68.0006 54.2282 70.3416C52.9889 71.278 52.8787 71.278 52.8787 70.3141C52.8787 69.4878 52.4656 68.6616 52.1626 68.937C52.08 69.0472 51.9148 69.5429 51.8046 70.0387C51.6669 70.6996 51.4466 70.975 51.0059 71.0301C49.9043 71.1954 49.4912 70.5895 49.6289 68.937C49.7666 67.2845 49.4361 66.7888 48.9954 68.0282C48.8302 68.4964 48.5272 68.8819 48.362 68.8819C47.701 68.8819 47.2603 67.3396 47.1502 64.4478C47.0125 61.1154 47.5633 57.8104 48.4997 56.2957C49.0505 55.4144 51.1712 53.7344 51.7495 53.7344C51.9148 53.7344 52.0525 53.5967 52.0525 53.459C52.0525 53.0734 51.0885 53.1285 50.042 53.5416C48.6099 54.1475 47.4256 55.3318 46.4066 57.177C45.5253 58.7468 45.3049 58.9396 44.2033 59.215C42 59.7659 41.7797 59.6832 40.1272 57.6452C38.5299 55.6623 37.263 54.836 35.8308 54.836C34.5915 54.836 34.7843 55.2767 36.299 55.9377C37.0151 56.2406 37.9239 56.9016 38.3095 57.3973C39.3561 58.6918 41.1462 61.9691 41.6695 63.5114C42.4682 65.8524 42.1377 70.8098 41.1738 70.8098C40.981 70.8098 40.5403 70.3691 40.2099 69.8459C39.4938 68.6891 38.9705 68.579 39.2184 69.598C39.7141 71.4983 39.7417 71.9665 39.3561 72.2144C38.64 72.655 38.0341 72.4623 37.6761 71.7187C37.4833 71.3055 37.0702 70.92 36.7948 70.8649C36.3541 70.7547 36.299 70.8649 36.4643 71.7462C36.6295 72.6 36.5744 72.7377 36.1062 72.7377C35.1423 72.7377 34.1784 72.2419 32.9115 71.0577C31.6721 69.9285 29.6892 66.6786 29.3312 65.219C29.221 64.8059 29.0007 64.3927 28.8354 64.2826C28.2846 63.9521 28.8905 67.6977 29.7167 69.8734C30.1849 71.0577 30.5154 72.0767 30.4328 72.1318C30.2676 72.297 26.219 70.5619 25.0898 69.8459C21.84 67.7528 19.0033 62.3272 19.0033 58.1685C19.0033 56.819 19.141 56.1029 19.5541 55.4419C20.4905 53.9272 21.3718 53.7344 27.1279 53.7344C29.9371 53.7344 32.223 53.6518 32.223 53.5141C32.223 53.4039 30.7357 52.9908 28.8905 52.5777C27.0728 52.1645 24.6767 51.4209 23.6026 50.9252C21.7849 50.099 18.6453 47.9783 17.6262 46.8767C16.3594 45.5547 14.7069 43.2137 13.9082 41.5888L12.9718 39.7436L14.1285 39.5783C14.762 39.4957 15.9462 39.358 16.7174 39.2478C17.5161 39.1376 18.3974 38.8898 18.6453 38.6695C19.0859 38.3114 18.7554 38.2839 15.9462 38.4491C13.1371 38.5868 12.7239 38.5593 12.5587 38.1737C12.1456 37.0996 12.3108 37.0445 16.9928 36.5213C22.0879 35.998 22.3082 35.9429 22.3082 35.3921C22.3082 34.8963 21.3994 34.8963 16.6348 35.4747C14.5141 35.7226 12.5587 35.8603 12.3108 35.7501C12.0079 35.6399 11.8426 35.2819 11.8426 34.7586C11.8426 34.015 11.9253 33.9324 12.8892 33.8498C14.3213 33.7396 14.2662 32.996 12.8066 32.8583C12.2007 32.8032 11.6498 32.7206 11.5948 32.6655C11.5397 32.5829 11.6498 31.619 11.8151 30.4622C12.2007 27.8183 13.4675 24.5134 15.1751 21.7042L16.5246 19.5009V15.838C16.5246 12.9462 16.6623 11.4314 17.2407 8.84255C17.9292 5.45501 18.3698 4.16058 18.7554 4.16058C19.4439 4.16058 22.2807 6.17107 25.1449 8.64977L27.0177 10.2747L29.3036 9.42091C34.7292 7.38288 41.0361 6.91468 47.7561 8.04386L51.3915 8.64977L53.8702 6.58419C57.0925 3.88517 59.4885 2.26025 60.2597 2.26025C60.7279 2.23271 61.0033 2.48058 61.2787 3.11402ZM73.92 43.1862C74.8289 44.0675 75.0217 44.8662 74.8289 46.6013C74.6361 48.116 74.2505 49.0524 72.4328 52.2196C71.7167 53.4314 70.3672 55.9377 69.4033 57.8104C67.6407 61.2255 66.5115 62.6577 64.4184 64.2C63.0413 65.1914 62.7935 65.1088 63.5922 63.9521C64.6663 62.4649 66.4013 58.4714 66.8144 56.5436C67.2 54.6432 67.1449 51.8616 66.5941 49.796C66.0984 47.758 67.6131 44.8111 70.0092 43.1862C71.524 42.1947 72.9286 42.1672 73.92 43.1862ZM75.3797 63.0157C75.5174 63.4288 74.9941 63.5665 71.882 63.9245C68.8249 64.2826 68.8525 64.2826 68.8525 63.6767C68.8525 63.236 69.1279 63.0983 70.1745 62.9331C70.8905 62.8505 71.9646 62.6577 72.5705 62.575C73.8649 62.3547 75.242 62.575 75.3797 63.0157ZM76.2335 65.3567C76.3161 66.0452 76.2335 66.1003 74.4433 66.3757C73.4243 66.5409 71.7718 66.7062 70.7803 66.7613C69.1554 66.8164 68.9902 66.7613 68.9902 66.2655C68.9902 65.7698 69.3758 65.6596 72.2951 65.1364C74.1128 64.8059 75.7377 64.5855 75.8754 64.6131C76.0407 64.6406 76.1784 64.9711 76.2335 65.3567ZM77.0597 68.3587L77.1423 69.0472L70.7253 69.8183C67.2 70.259 62.5181 70.8924 60.3423 71.2505C55.9358 71.9665 55.3849 72.0216 55.798 71.6636C56.0735 71.4157 59.5436 70.5344 62.9587 69.8459C66.8695 69.0747 76.1233 67.5324 76.564 67.5875C76.7843 67.615 77.0046 67.9731 77.0597 68.3587ZM23.2721 70.8098C23.5475 71.1128 23.7128 71.4157 23.6577 71.4432C23.6026 71.4983 20.463 71.9941 16.6623 72.5724C12.8892 73.1232 9.44656 73.6465 9.03345 73.7291C8.31738 73.8668 8.2623 73.8118 8.2623 73.0406C8.2623 71.9941 8.59279 71.9114 15.0098 71.0026C21.1515 70.1213 22.6112 70.0937 23.2721 70.8098ZM77.5279 71.4157C77.583 71.7737 77.8859 73.0957 78.1889 74.3901C79.2354 78.9895 79.6486 82.2118 79.6486 85.8747C79.6486 87.9128 79.5935 89.6203 79.5108 89.7029C79.4282 89.7855 78.0236 90.0334 76.3987 90.2537C74.7463 90.4741 72.2125 90.8321 70.7803 91.0524C69.3482 91.2728 65.7403 91.7685 62.7935 92.1541C59.8466 92.5396 55.6328 93.118 53.4295 93.421C48.7751 94.0819 42.5508 94.9357 39.7967 95.3213C38.7502 95.459 36.4367 95.7619 34.7017 96.0098C32.9666 96.2577 29.6892 96.6983 27.4033 97.0013C25.1449 97.3042 21.7849 97.7724 19.9672 98.0754C18.1495 98.3508 15.781 98.6813 14.7069 98.7915L12.7239 98.9567L12.4485 98.0478C11.6774 95.5692 10.438 90.3914 9.77705 86.7836C9.36394 84.5803 8.8682 81.8813 8.64787 80.7796C8.42754 79.6505 8.31738 78.659 8.4 78.5213C8.48263 78.4111 9.36394 78.2183 10.383 78.1082C13.0269 77.8603 21.179 76.676 25.8885 75.9049C29.3312 75.3265 38.5299 74.5554 38.7777 74.8032C38.8328 74.8583 38.1443 74.9685 37.263 75.0787C36.3817 75.1888 33.5725 75.6295 30.9836 76.0701C23.7679 77.3095 12.6964 79.0996 11.0439 79.2924C9.44656 79.4852 9.14361 79.7606 9.69443 80.5318C10.0525 81 10.3554 80.9724 15.2853 80.1737C25.9712 78.4662 36.0512 76.8964 39.9344 76.318C43.5148 75.8223 52.5207 74.4177 61.5541 72.9855C63.3718 72.7101 66.5941 72.2144 68.7148 71.9114C70.8354 71.6085 73.3141 71.2505 74.223 71.1128C77.0322 70.6996 77.3626 70.7272 77.5279 71.4157ZM50.2899 72.9855C50.2072 73.1232 49.3535 73.316 48.4171 73.4262C47.4531 73.5364 45.3325 73.8668 43.6525 74.1423C39.7967 74.8032 38.7226 74.7757 41.0361 74.0872C43.68 73.2885 50.5928 72.4623 50.2899 72.9855ZM25.0348 73.8118C25.7508 74.28 24.842 74.5003 19.0859 75.2164C16.6898 75.5469 13.3023 76.0426 11.5397 76.318C9.77705 76.621 8.2623 76.8688 8.15213 76.8688C7.76656 76.8688 8.01443 75.7672 8.45508 75.5193C8.73049 75.3816 11.0715 74.996 13.6328 74.6655C16.2216 74.335 18.9482 73.977 19.6918 73.8393C21.6197 73.5364 24.5666 73.5364 25.0348 73.8118Z" fill="black"/>
<path d="M57.5607 6.00591C56.7895 6.88722 55.8807 8.07148 55.6053 8.64984L55.0544 9.72394L56.5141 11.2662C57.3403 12.1475 58.2767 13.3043 58.6348 13.8551C58.9653 14.4334 59.3784 14.9016 59.5161 14.9016C60.1771 14.9016 60.6177 12.8361 60.6453 9.97181C60.6453 6.80459 60.1771 4.62886 59.4335 4.49115C59.1856 4.43607 58.3869 5.09705 57.5607 6.00591Z" fill="black"/>
<path d="M19.3614 7.93369C18.3974 10.3022 17.8741 15.4524 18.48 17.0222L18.7555 17.7934L19.4991 16.8294C20.7935 15.177 23.52 12.3953 24.2912 11.9271C25.2276 11.3763 25.2551 10.9907 24.4564 10.137C23.7128 9.36582 20.3804 6.91467 20.0223 6.91467C19.9122 6.91467 19.6092 7.38287 19.3614 7.93369Z" fill="black"/>
<path d="M49.0506 22.6958C47.5083 23.4669 46.7096 25.56 47.1227 27.7357C47.8112 31.3987 51.9148 32.0046 53.8978 28.7548C54.7516 27.3502 54.7791 25.0918 53.9529 23.9626C52.9063 22.4754 50.6204 21.8695 49.0506 22.6958ZM49.7942 25.9731C49.8768 27.2676 49.4912 27.7633 48.7476 27.2951C47.9489 26.7994 48.5824 24.3482 49.4086 24.6236C49.5739 24.6787 49.7391 25.2846 49.7942 25.9731Z" fill="black"/>
<path d="M26.4394 23.7699C24.4289 25.1469 23.7955 27.1574 24.6217 29.3607C25.1725 30.7653 26.2466 31.7843 27.7063 32.2525C29.1935 32.7482 30.901 32.0322 31.8099 30.4899C33.1319 28.2315 32.4709 24.9266 30.4879 23.7148C29.2761 22.9712 27.5686 22.9987 26.4394 23.7699ZM26.9076 26.2486C27.3207 26.7719 27.5961 28.0938 27.4033 28.6997C27.2932 28.9751 26.9902 29.223 26.7148 29.223C25.9712 29.223 25.2551 28.0387 25.4755 27.2401C25.7233 26.524 26.1365 25.9181 26.4394 25.9181C26.5496 25.9181 26.7699 26.0833 26.9076 26.2486Z" fill="black"/>
<path d="M58.6623 26.3862C57.2853 26.6616 56.9273 27.5704 58.1941 27.5704C58.9653 27.5704 60.0945 26.7993 59.9017 26.4413C59.7915 26.3035 59.6538 26.2209 59.5437 26.2209C59.4335 26.2485 59.0479 26.3311 58.6623 26.3862Z" fill="black"/>
<path d="M37.5108 29.9391C36.6846 30.5174 36.7396 31.0407 37.7311 31.3712C38.695 31.7292 39.2459 32.7482 38.998 33.7397C38.9154 34.0978 38.2268 35.0617 37.4832 35.8053C35.9685 37.3476 35.2524 37.5404 33.5173 36.7968C32.278 36.2735 31.9475 36.2735 31.9475 36.7692C31.9475 37.4853 32.9114 38.3391 34.0131 38.5869C35.8308 39 38.0341 37.623 39.5764 35.1168C39.8793 34.621 39.9344 34.6486 40.6229 35.5023C41.9724 37.1548 43.8727 37.6505 45.8282 36.8243C46.8472 36.4112 47.6734 34.924 47.1501 34.4007C46.9298 34.1804 46.5993 34.3181 45.9934 34.8414C44.2859 36.2735 41.697 35.6951 40.6229 33.6296C40.2924 32.9961 40.2649 32.6932 40.5403 32.1148C40.7055 31.7292 40.9259 31.4263 41.036 31.4263C41.1462 31.4263 41.3665 31.1233 41.5318 30.7378C41.8072 30.1594 41.7796 30.0217 41.3114 29.7738C40.5127 29.3607 38.1993 29.4433 37.5108 29.9391Z" fill="#6739BE"/>
<path d="M20.7935 32.0046C20.5181 32.4452 21.1791 32.8033 22.2532 32.8033C22.9968 32.8033 23.162 32.6931 23.0794 32.3075C22.9692 31.7567 21.0964 31.4813 20.7935 32.0046Z" fill="black"/>
<path d="M37.7312 52.8807C37.7312 53.1561 40.4027 53.5416 40.7607 53.3213C41.4492 52.9082 40.8984 52.6328 39.3837 52.6328C38.4748 52.6328 37.7312 52.7429 37.7312 52.8807Z" fill="black"/>
<path d="M19.8296 81.3029C14.2663 82.1016 12.1181 82.377 11.2368 82.377C10.3004 82.377 10.1903 82.4597 10.1903 83.0656C10.1903 83.9469 10.025 83.9469 17.2132 83.0105C22.7214 82.322 23.9883 81.9915 23.5752 81.3029C23.3548 80.9725 22.1155 80.9725 19.8296 81.3029Z" fill="black"/>
</svg>
